<svg width="29" height="28" viewBox="0 0 29 28" fill="none" xmlns="http://www.w3.org/2000/svg">
<path fill-rule="evenodd" clip-rule="evenodd" d="M15.2331 3.89998C14.7655 3.89998 14.3865 4.27902 14.3865 4.7466V5.27096H16.0797V4.7466C16.0797 4.27902 15.7007 3.89998 15.2331 3.89998ZM17.8797 5.27096V4.7466C17.8797 3.28491 16.6948 2.09998 15.2331 2.09998C13.7714 2.09998 12.5865 3.28491 12.5865 4.7466V5.27096H10.4652C7.77821 5.27096 5.60001 7.44916 5.60001 10.1361V20.7032C5.60001 23.3902 7.77822 25.5684 10.4652 25.5684H19.502C22.189 25.5684 24.3672 23.3902 24.3672 20.7032V10.1361C24.3672 7.44917 22.189 5.27096 19.502 5.27096H17.8797ZM10.4652 7.07096C8.77232 7.07096 7.40001 8.44328 7.40001 10.1361V20.7032C7.40001 22.396 8.77233 23.7684 10.4652 23.7684H19.502C21.1949 23.7684 22.5672 22.3961 22.5672 20.7032V10.1361C22.5672 8.44328 21.1949 7.07096 19.502 7.07096H10.4652ZM10.0913 10.9274C10.0913 10.4304 10.4943 10.0274 10.9913 10.0274H18.9759C19.4729 10.0274 19.8759 10.4304 19.8759 10.9274C19.8759 11.4245 19.4729 11.8274 18.9759 11.8274H10.9913C10.4943 11.8274 10.0913 11.4245 10.0913 10.9274ZM10.0913 14.6269C10.0913 14.1299 10.4943 13.7269 10.9913 13.7269H18.9759C19.4729 13.7269 19.8759 14.1299 19.8759 14.6269C19.8759 15.124 19.4729 15.5269 18.9759 15.5269H10.9913C10.4943 15.5269 10.0913 15.124 10.0913 14.6269ZM11.5884 18.3264C11.5884 17.8293 11.9914 17.4264 12.4884 17.4264H17.4788C17.9758 17.4264 18.3788 17.8293 18.3788 18.3264C18.3788 18.8235 17.9758 19.2264 17.4788 19.2264H12.4884C11.9914 19.2264 11.5884 18.8235 11.5884 18.3264Z" fill="#A2ACB0"/>
</svg>
