<svg width="29" height="28" viewBox="0 0 29 28" fill="none" xmlns="http://www.w3.org/2000/svg">
<path fill-rule="evenodd" clip-rule="evenodd" d="M14.5002 5.12623C13.5058 4.19483 12.1576 3.44868 10.6775 3.17683C8.91596 2.85327 6.96803 3.20586 5.27562 4.70046C4.1478 5.69646 3.44227 7.26341 3.20848 8.95668C2.97272 10.6642 3.2023 12.5852 4.04227 14.3655C4.64995 15.6534 6.09664 17.2736 7.59994 18.765C9.13624 20.2892 10.8468 21.7885 12.0986 22.8481C13.4903 24.0263 15.5101 24.0263 16.9018 22.8481C18.1536 21.7885 19.8642 20.2892 21.4005 18.765C22.9038 17.2736 24.3505 15.6535 24.9582 14.3655C25.7981 12.5853 26.0277 10.6642 25.792 8.95669C25.5582 7.26343 24.8526 5.69648 23.7248 4.70048C22.0324 3.20588 20.0845 2.85329 18.3229 3.17683C16.8428 3.44869 15.4947 4.19483 14.5002 5.12623ZM10.3524 4.94711C9.0787 4.71318 7.70484 4.95647 6.46705 6.04959C5.74754 6.685 5.18411 7.80759 4.99147 9.20286C4.80079 10.5839 4.9873 12.1503 5.67007 13.5974C6.12477 14.5611 7.34637 15.9781 8.86759 17.4873C10.3558 18.9637 12.026 20.4285 13.2615 21.4744C13.9821 22.0843 15.0184 22.0843 15.7389 21.4744C16.9744 20.4285 18.6446 18.9637 20.1328 17.4873C21.6541 15.9781 22.8757 14.5612 23.3304 13.5975C24.0131 12.1504 24.1996 10.5839 24.009 9.20287C23.8163 7.80761 23.2529 6.68501 22.5334 6.0496C21.2956 4.95649 19.9217 4.71319 18.6481 4.94712C17.3438 5.18668 16.1457 5.93097 15.377 6.8038C14.9126 7.33119 14.0878 7.33119 13.6234 6.8038C12.8548 5.93097 11.6566 5.18668 10.3524 4.94711Z" fill="#A2ACB0"/>
</svg>
