<svg width="29" height="28" viewBox="0 0 29 28" fill="none" xmlns="http://www.w3.org/2000/svg">
<path fill-rule="evenodd" clip-rule="evenodd" d="M11.1682 18.324C14.7968 18.324 17.9463 15.1341 17.9463 10.9333C17.9463 9.9836 17.7825 9.08077 17.4869 8.25353C17.18 7.39464 17.4831 6.53157 18.056 6.02175C18.6499 5.49323 19.6214 5.28192 20.4771 5.81048C23.5898 7.73313 25.6311 11.2931 25.6311 15.3098C25.6311 21.2609 21.0997 26.3006 15.253 26.3006C11.3297 26.3006 7.97258 24.0058 6.21563 20.7174C5.74059 19.8283 6.01697 18.8787 6.56569 18.3242C7.0957 17.7886 7.9634 17.5209 8.80844 17.8637C9.54276 18.1615 10.3368 18.324 11.1682 18.324ZM9.09092 21.7036C8.93873 21.5352 8.7925 21.3607 8.65258 21.1803C8.38169 20.831 8.13449 20.4599 7.91362 20.0698C7.87606 20.0035 7.83926 19.9366 7.80323 19.8692C7.6932 19.6632 7.91553 19.4439 8.13189 19.5317C8.18984 19.5552 8.24808 19.578 8.30662 19.6002C8.7117 19.7538 9.13075 19.8756 9.56119 19.963C9.72285 19.9958 9.88611 20.0238 10.0508 20.0468C10.4166 20.0977 10.7895 20.124 11.1682 20.124C15.9058 20.124 19.7463 16.0092 19.7463 10.9333C19.7463 10.5172 19.7205 10.1076 19.6705 9.70614C19.6449 9.50078 19.613 9.29757 19.575 9.09673C19.4917 8.65693 19.3792 8.22852 19.2396 7.81396C19.2209 7.75833 19.2016 7.70295 19.1819 7.64783C19.1034 7.42797 19.3325 7.2192 19.5312 7.34189C19.5925 7.37976 19.6533 7.41841 19.7136 7.45784C20.0905 7.70413 20.4482 7.98069 20.7839 8.28436C20.9844 8.46573 21.177 8.65678 21.3611 8.85682C22.8885 10.5163 23.8311 12.7951 23.8311 15.3098C23.8311 20.3858 19.9906 24.5006 15.253 24.5006C12.8347 24.5006 10.6502 23.4284 9.09092 21.7036Z" fill="#A2ACB0"/>
<path d="M10.6301 9.1724C10.7451 8.86144 10.8027 8.70596 10.8865 8.66162C10.9591 8.62321 11.046 8.62321 11.1186 8.66162C11.2025 8.70596 11.26 8.86144 11.3751 9.1724L11.7271 10.1237C11.7504 10.1867 11.7621 10.2182 11.7806 10.2446C11.7971 10.268 11.8174 10.2884 11.8408 10.3048C11.8672 10.3234 11.8987 10.3351 11.9617 10.3584L12.9131 10.7104C13.224 10.8255 13.3795 10.883 13.4238 10.9668C13.4623 11.0394 13.4623 11.1264 13.4238 11.199C13.3795 11.2828 13.224 11.3403 12.9131 11.4554L11.9617 11.8074C11.8987 11.8307 11.8672 11.8424 11.8408 11.861C11.8174 11.8774 11.7971 11.8978 11.7806 11.9212C11.7621 11.9476 11.7504 11.9791 11.7271 12.0421L11.3751 12.9934C11.26 13.3044 11.2025 13.4598 11.1186 13.5042C11.046 13.5426 10.9591 13.5426 10.8865 13.5042C10.8027 13.4598 10.7451 13.3044 10.6301 12.9934L10.2781 12.0421C10.2547 11.9791 10.2431 11.9476 10.2245 11.9212C10.2081 11.8978 10.1877 11.8774 10.1643 11.861C10.1379 11.8424 10.1064 11.8307 10.0434 11.8074L9.09207 11.4554C8.78112 11.3403 8.62564 11.2828 8.5813 11.199C8.54289 11.1264 8.54289 11.0394 8.5813 10.9668C8.62564 10.883 8.78112 10.8255 9.09207 10.7104L10.0434 10.3584C10.1064 10.3351 10.1379 10.3234 10.1643 10.3048C10.1877 10.2884 10.2081 10.268 10.2245 10.2446C10.2431 10.2182 10.2547 10.1867 10.2781 10.1237L10.6301 9.1724Z" fill="#A2ACB0"/>
<path d="M5.96065 3.33921C6.07571 3.02825 6.13324 2.87277 6.21707 2.82843C6.28968 2.79002 6.3766 2.79002 6.44921 2.82843C6.53304 2.87277 6.59057 3.02825 6.70563 3.33921L7.21523 4.71638C7.23854 4.77938 7.2502 4.81088 7.26877 4.83728C7.28522 4.86068 7.3056 4.88105 7.32899 4.89751C7.35539 4.91607 7.38689 4.92773 7.44989 4.95104L8.82707 5.46065C9.13802 5.57571 9.29349 5.63324 9.33784 5.71707C9.37625 5.78968 9.37625 5.8766 9.33784 5.94921C9.29349 6.03304 9.13802 6.09057 8.82707 6.20563L7.44989 6.71524C7.38689 6.73855 7.35539 6.7502 7.32899 6.76877C7.3056 6.78523 7.28522 6.8056 7.26877 6.82899C7.2502 6.85539 7.23854 6.88689 7.21523 6.94989L6.70563 8.32707C6.59057 8.63803 6.53304 8.79351 6.44921 8.83785C6.3766 8.87626 6.28968 8.87626 6.21707 8.83785C6.13324 8.79351 6.07571 8.63803 5.96065 8.32707L5.45105 6.94989C5.42774 6.88689 5.41608 6.85539 5.39751 6.82899C5.38106 6.8056 5.36068 6.78523 5.33729 6.76877C5.31089 6.7502 5.27939 6.73855 5.21639 6.71524L3.83921 6.20563C3.52826 6.09057 3.37279 6.03304 3.32844 5.94921C3.29003 5.8766 3.29003 5.78968 3.32844 5.71707C3.37279 5.63324 3.52826 5.57571 3.83921 5.46065L5.21639 4.95104C5.27939 4.92773 5.31089 4.91607 5.33729 4.89751C5.36068 4.88105 5.38106 4.86068 5.39751 4.83728C5.41608 4.81088 5.42774 4.77938 5.45105 4.71638L5.96065 3.33921Z" fill="#A2ACB0"/>
</svg>
